<?xml version="1.0" standalone="no"?><!DOCTYPE svg PUBLIC "-//W3C//DTD SVG 1.1//EN" "http://www.w3.org/Graphics/SVG/1.1/DTD/svg11.dtd"><svg t="1732804802012" class="icon" viewBox="0 0 1024 1024" version="1.1" xmlns="http://www.w3.org/2000/svg" p-id="15720" xmlns:xlink="http://www.w3.org/1999/xlink" width="200" height="200"><path d="M513.0752 208.3328m-120.8832 0a120.8832 120.8832 0 1 0 241.7664 0 120.8832 120.8832 0 1 0-241.7664 0Z" fill="#e3b337" p-id="15721"></path><path d="M754.8928 704.512m-120.9344 0a120.9344 120.9344 0 1 0 241.8688 0 120.9344 120.9344 0 1 0-241.8688 0Z" fill="#e3b337" p-id="15722"></path><path d="M136.8576 696.4736m-120.9344 0a120.9344 120.9344 0 1 0 241.8688 0 120.9344 120.9344 0 1 0-241.8688 0Z" fill="#e3b337" p-id="15723"></path><path d="M471.0912 872.1408m-78.9504 0a78.9504 78.9504 0 1 0 157.9008 0 78.9504 78.9504 0 1 0-157.9008 0Z" fill="#e3b337" p-id="15724"></path><path d="M913.5616 416.8704m-78.9504 0a78.9504 78.9504 0 1 0 157.9008 0 78.9504 78.9504 0 1 0-157.9008 0Z" fill="#e3b337" p-id="15725"></path><path d="M366.8992 463.1552m-78.9504 0a78.9504 78.9504 0 1 0 157.9008 0 78.9504 78.9504 0 1 0-157.9008 0Z" fill="#e3b337" p-id="15726"></path><path d="M107.2128 296.2432m-78.9504 0a78.9504 78.9504 0 1 0 157.9008 0 78.9504 78.9504 0 1 0-157.9008 0Z" fill="#e3b337" p-id="15727"></path></svg>